<svg width="97" height="96" xmlns="http://www.w3.org/2000/svg" xmlns:xlink="http://www.w3.org/1999/xlink" xml:space="preserve" overflow="hidden"><g transform="translate(-1060 -80)"><g><g><g><g><path d="M1108.98 90C1088 90 1071 107.004 1071 127.979 1071 148.954 1088 165.958 1108.98 165.958 1129.95 165.958 1146.96 148.954 1146.96 127.979 1146.96 127.978 1146.96 127.977 1146.96 127.976 1146.97 107.01 1129.97 90.0072 1109.01 90 1109 90 1108.99 90 1108.98 90ZM1118.18 129.793C1112.65 135.316 1107.08 140.889 1101.48 146.51 1096.72 141.729 1091.95 136.959 1087.17 132.2L1091.95 127.419 1101.48 136.948C1106.1 132.255 1110.7 127.596 1115.28 122.969 1119.85 118.343 1122.38 115.86 1127.12 111.278 1127.25 111.145 1127.4 111.013 1127.55 110.878 1127.7 110.751 1127.84 110.606 1127.95 110.446L1132.8 115.227C1127.17 120.827 1123.71 124.267 1118.18 129.79Z" fill="#F96C6C" fill-rule="nonzero" fill-opacity="1"/></g></g></g></g></g></svg>