<svg width="96" height="96" xmlns="http://www.w3.org/2000/svg" xmlns:xlink="http://www.w3.org/1999/xlink" xml:space="preserve" overflow="hidden"><g transform="translate(-932 -72)"><g><path d="M1010 92 993 92 993 87C993 83.1 989.9 80 986 80L974 80C970.1 80 967 83.1 967 87L967 92 950 92C947.8 92 946 93.8 946 96L946 100 1014 100 1014 96C1014 93.8 1012.2 92 1010 92ZM973 87C973 86.4 973.4 86 974 86L986 86C986.6 86 987 86.4 987 87L987 92 973 92 973 87Z" fill="#F96C6C" fill-rule="nonzero" fill-opacity="1"/><path d="M952 156C952 158.2 953.8 160 956 160L1004 160C1006.2 160 1008 158.2 1008 156L1008 104 952 104 952 156ZM993 110 999 110 999 154 993 154 993 110ZM977 110 983 110 983 154 977 154 977 110ZM961 110 967 110 967 154 961 154 961 110Z" fill="#F96C6C" fill-rule="nonzero" fill-opacity="1"/></g></g></svg>