<svg width="358" height="358" xmlns="http://www.w3.org/2000/svg" xmlns:xlink="http://www.w3.org/1999/xlink" xml:space="preserve" overflow="hidden"><g transform="translate(-592 -312)"><g><path d="M890.072 441.328 755.822 473.137 755.822 584.229C748.334 582.737 740.576 583.397 733.447 586.131 717.263 592.023 707.343 605.523 711.072 616.3 714.801 627.077 731.247 631.217 747.432 625.213 762.05 619.917 770.403 606.567 770.403 598.288L770.403 490.702 874.82 466.052 874.82 559.654C867.171 558.113 859.241 558.786 851.96 561.593 835.403 567.672 825.185 581.581 829.212 592.732 833.24 603.882 849.909 607.984 866.504 601.943 880.526 596.908 889.849 586.504 890.333 576.771Z" fill="#F96C6C" fill-rule="nonzero" fill-opacity="1"/><path d="M717.225 376.888C713.943 374.745 711.199 371.874 709.208 368.497L709.208 361.635C709.208 357.516 705.869 354.177 701.749 354.177 697.63 354.177 694.291 357.516 694.291 361.635L694.291 474.219C687.077 472.947 679.654 473.656 672.811 476.27 656.626 482.125 646.707 495.624 650.436 506.439 654.165 517.253 670.648 521.355 686.833 515.351 698.02 511.249 706.299 503.455 708.947 495.438L708.947 416.79C709.955 417.579 711.014 418.301 712.116 418.953 736.99 433.869 723.304 457.438 735.461 457.549 751.086 457.661 751.72 399.896 717.225 376.888Z" fill="#F96C6C" fill-rule="nonzero" fill-opacity="1"/></g></g></svg>